HIERARCHY
ROOT Hips
{
  OFFSET -6.10715 92.9495 -38.6846
  CHANNELS 6 Xposition Yposition Zposition Zrotation Xrotation Yrotation
  JOINT Spine
  {
    OFFSET 0 8 0
    CHANNELS 6 Xposition Yposition Zposition Zrotation Xrotation Yrotation
    JOINT Spine1
    {
      OFFSET 0 8 0
      CHANNELS 6 Xposition Yposition Zposition Zrotation Xrotation Yrotation
      JOINT Spine2
      {
        OFFSET 0 8 0
        CHANNELS 6 Xposition Yposition Zposition Zrotation Xrotation Yrotation
        JOINT Spine3
        {
          OFFSET 0 8 0
          CHANNELS 6 Xposition Yposition Zposition Zrotation Xrotation Yrotation
          JOINT Neck
          {
            OFFSET 0 17 0
            CHANNELS 6 Xposition Yposition Zposition Zrotation Xrotation Yrotation
            JOINT Head
            {
              OFFSET 0 10.8 0
              CHANNELS 6 Xposition Yposition Zposition Zrotation Xrotation Yrotation
              End Site
              {
                OFFSET 0 20.25 0
              }
            }
          }
          JOINT LeftShoulder
          {
            OFFSET 5 17 0
            CHANNELS 6 Xposition Yposition Zposition Zrotation Xrotation Yrotation
            JOINT LeftShoulder2
            {
              OFFSET 6.45 0 0
              CHANNELS 6 Xposition Yposition Zposition Zrotation Xrotation Yrotation
              JOINT LeftArm
              {
                OFFSET 6.45 0 0
                CHANNELS 6 Xposition Yposition Zposition Zrotation Xrotation Yrotation
                JOINT LeftForeArm
                {
                  OFFSET 0 -32.4 -2
                  CHANNELS 6 Xposition Yposition Zposition Zrotation Xrotation Yrotation
                  JOINT LeftHand
                  {
                    OFFSET 0 -25.65 2
                    CHANNELS 6 Xposition Yposition Zposition Zrotation Xrotation Yrotation
                    JOINT LeftHandThumb1
                    {
                      OFFSET -0.5 -1.5 2.65
                      CHANNELS 6 Xposition Yposition Zposition Zrotation Xrotation Yrotation
                      JOINT LeftHandThumb2
                      {
                        OFFSET 0 -3.8 3.7
                        CHANNELS 6 Xposition Yposition Zposition Zrotation Xrotation Yrotation
                        JOINT LeftHandThumb3
                        {
                          OFFSET 0 -3 2.7
                          CHANNELS 6 Xposition Yposition Zposition Zrotation Xrotation Yrotation
                          End Site
                          {
                            OFFSET 0 -2.3 1.8
                          }
                        }
                      }
                    }
                    JOINT LeftHandIndex
                    {
                      OFFSET 0 -1.9 1.6
                      CHANNELS 6 Xposition Yposition Zposition Zrotation Xrotation Yrotation
                      JOINT LeftHandIndex1
                      {
                        OFFSET 0 -8.3 1.9
                        CHANNELS 6 Xposition Yposition Zposition Zrotation Xrotation Yrotation
                        JOINT LeftHandIndex2
                        {
                          OFFSET 0 -4.5 0
                          CHANNELS 6 Xposition Yposition Zposition Zrotation Xrotation Yrotation
                          JOINT LeftHandIndex3
                          {
                            OFFSET 0 -3.4 0
                            CHANNELS 6 Xposition Yposition Zposition Zrotation Xrotation Yrotation
                            End Site
                            {
                              OFFSET 0 -2.6 0
                            }
                          }
                        }
                      }
                    }
                    JOINT LeftHandMiddle
                    {
                      OFFSET -0.25 -2.2 0.4
                      CHANNELS 6 Xposition Yposition Zposition Zrotation Xrotation Yrotation
                      JOINT LeftHandMiddle1
                      {
                        OFFSET 0 -8.3 1
                        CHANNELS 6 Xposition Yposition Zposition Zrotation Xrotation Yrotation
                        JOINT LeftHandMiddle2
                        {
                          OFFSET 0 -4.65 0
                          CHANNELS 6 Xposition Yposition Zposition Zrotation Xrotation Yrotation
                          JOINT LeftHandMiddle3
                          {
                            OFFSET 0 -3.3 0
                            CHANNELS 6 Xposition Yposition Zposition Zrotation Xrotation Yrotation
                            End Site
                            {
                              OFFSET 0 -2.7 0
                            }
                          }
                        }
                      }
                    }
                    JOINT LeftHandRing
                    {
                      OFFSET -0.5 -2.15 -0.8
                      CHANNELS 6 Xposition Yposition Zposition Zrotation Xrotation Yrotation
                      JOINT LeftHandRing1
                      {
                        OFFSET 0 -7.75 -0.2
                        CHANNELS 6 Xposition Yposition Zposition Zrotation Xrotation Yrotation
                        JOINT LeftHandRing2
                        {
                          OFFSET 0 -3.8 0
                          CHANNELS 6 Xposition Yposition Zposition Zrotation Xrotation Yrotation
                          JOINT LeftHandRing3
                          {
                            OFFSET 0 -3.4 0
                            CHANNELS 6 Xposition Yposition Zposition Zrotation Xrotation Yrotation
                            End Site
                            {
                              OFFSET 0 -2.6 0
                            }
                          }
                        }
                      }
                    }
                    JOINT LeftHandPinky
                    {
                      OFFSET -0.75 -1.75 -1.85
                      CHANNELS 6 Xposition Yposition Zposition Zrotation Xrotation Yrotation
                      JOINT LeftHandPinky1
                      {
                        OFFSET 0 -7.15 -1
                        CHANNELS 6 Xposition Yposition Zposition Zrotation Xrotation Yrotation
                        JOINT LeftHandPinky2
                        {
                          OFFSET 0 -3 0
                          CHANNELS 6 Xposition Yposition Zposition Zrotation Xrotation Yrotation
                          JOINT LeftHandPinky3
                          {
                            OFFSET 0 -2.35 0
                            CHANNELS 6 Xposition Yposition Zposition Zrotation Xrotation Yrotation
                            End Site
                            {
                              OFFSET 0 -2.1 0
                            }
                          }
                        }
                      }
                    }
                  }
                }
              }
            }
          }
          JOINT RightShoulder
          {
            OFFSET -5 17 0
            CHANNELS 6 Xposition Yposition Zposition Zrotation Xrotation Yrotation
            JOINT RightShoulder2
            {
              OFFSET -6.45 0 0
              CHANNELS 6 Xposition Yposition Zposition Zrotation Xrotation Yrotation
              JOINT RightArm
              {
                OFFSET -6.45 0 0
                CHANNELS 6 Xposition Yposition Zposition Zrotation Xrotation Yrotation
                JOINT RightForeArm
                {
                  OFFSET 0 -32.4 -2
                  CHANNELS 6 Xposition Yposition Zposition Zrotation Xrotation Yrotation
                  JOINT RightHand
                  {
                    OFFSET 0 -25.65 2
                    CHANNELS 6 Xposition Yposition Zposition Zrotation Xrotation Yrotation
                    JOINT RightHandThumb1
                    {
                      OFFSET 0.5 -1.5 2.65
                      CHANNELS 6 Xposition Yposition Zposition Zrotation Xrotation Yrotation
                      JOINT RightHandThumb2
                      {
                        OFFSET 0 -3.8 3.7
                        CHANNELS 6 Xposition Yposition Zposition Zrotation Xrotation Yrotation
                        JOINT RightHandThumb3
                        {
                          OFFSET 0 -3 2.7
                          CHANNELS 6 Xposition Yposition Zposition Zrotation Xrotation Yrotation
                          End Site
                          {
                            OFFSET 0 -2.3 1.8
                          }
                        }
                      }
                    }
                    JOINT RightHandIndex
                    {
                      OFFSET 0 -1.9 1.6
                      CHANNELS 6 Xposition Yposition Zposition Zrotation Xrotation Yrotation
                      JOINT RightHandIndex1
                      {
                        OFFSET 0 -8.3 1.9
                        CHANNELS 6 Xposition Yposition Zposition Zrotation Xrotation Yrotation
                        JOINT RightHandIndex2
                        {
                          OFFSET 0 -4.5 0
                          CHANNELS 6 Xposition Yposition Zposition Zrotation Xrotation Yrotation
                          JOINT RightHandIndex3
                          {
                            OFFSET 0 -3.4 0
                            CHANNELS 6 Xposition Yposition Zposition Zrotation Xrotation Yrotation
                            End Site
                            {
                              OFFSET 0 -2.6 0
                            }
                          }
                        }
                      }
                    }
                    JOINT RightHandMiddle
                    {
                      OFFSET 0.25 -2.2 0.4
                      CHANNELS 6 Xposition Yposition Zposition Zrotation Xrotation Yrotation
                      JOINT RightHandMiddle1
                      {
                        OFFSET 0 -8.3 1
                        CHANNELS 6 Xposition Yposition Zposition Zrotation Xrotation Yrotation
                        JOINT RightHandMiddle2
                        {
                          OFFSET 0 -4.65 0
                          CHANNELS 6 Xposition Yposition Zposition Zrotation Xrotation Yrotation
                          JOINT RightHandMiddle3
                          {
                            OFFSET 0 -3.3 0
                            CHANNELS 6 Xposition Yposition Zposition Zrotation Xrotation Yrotation
                            End Site
                            {
                              OFFSET 0 -2.7 0
                            }
                          }
                        }
                      }
                    }
                    JOINT RightHandRing
                    {
                      OFFSET 0.5 -2.15 -0.8
                      CHANNELS 6 Xposition Yposition Zposition Zrotation Xrotation Yrotation
                      JOINT RightHandRing1
                      {
                        OFFSET 0 -7.75 -0.2
                        CHANNELS 6 Xposition Yposition Zposition Zrotation Xrotation Yrotation
                        JOINT RightHandRing2
                        {
                          OFFSET 0 -3.8 0
                          CHANNELS 6 Xposition Yposition Zposition Zrotation Xrotation Yrotation
                          JOINT RightHandRing3
                          {
                            OFFSET 0 -3.4 0
                            CHANNELS 6 Xposition Yposition Zposition Zrotation Xrotation Yrotation
                            End Site
                            {
                              OFFSET 0 -2.6 0
                            }
                          }
                        }
                      }
                    }
                    JOINT RightHandPinky
                    {
                      OFFSET 0.75 -1.75 -1.85
                      CHANNELS 6 Xposition Yposition Zposition Zrotation Xrotation Yrotation
                      JOINT RightHandPinky1
                      {
                        OFFSET 0 -7.15 -1
                        CHANNELS 6 Xposition Yposition Zposition Zrotation Xrotation Yrotation
                        JOINT RightHandPinky2
                        {
                          OFFSET 0 -3 0
                          CHANNELS 6 Xposition Yposition Zposition Zrotation Xrotation Yrotation
                          JOINT RightHandPinky3
                          {
                            OFFSET 0 -2.35 0
                            CHANNELS 6 Xposition Yposition Zposition Zrotation Xrotation Yrotation
                            End Site
                            {
                              OFFSET 0 -2.1 0
                            }
                          }
                        }
                      }
                    }
                  }
                }
              }
            }
          }
        }
      }
    }
  }
  JOINT LeftUpLeg
  {
    OFFSET 8 0 0
    CHANNELS 6 Xposition Yposition Zposition Zrotation Xrotation Yrotation
    JOINT LeftLeg
    {
      OFFSET 0 -45 -1
      CHANNELS 6 Xposition Yposition Zposition Zrotation Xrotation Yrotation
      JOINT LeftFoot
      {
        OFFSET 0 -41 -2
        CHANNELS 6 Xposition Yposition Zposition Zrotation Xrotation Yrotation
        JOINT LeftToeBase
        {
          OFFSET 0 -7.5 12.5
          CHANNELS 6 Xposition Yposition Zposition Zrotation Xrotation Yrotation
          JOINT LeftFootToe
          {
            OFFSET 0 0 4
            CHANNELS 6 Xposition Yposition Zposition Zrotation Xrotation Yrotation
            End Site
            {
              OFFSET 0 0 0
            }
          }
        }
      }
    }
  }
  JOINT RightUpLeg
  {
    OFFSET -8 0 0
    CHANNELS 6 Xposition Yposition Zposition Zrotation Xrotation Yrotation
    JOINT RightLeg
    {
      OFFSET 0 -45 -1
      CHANNELS 6 Xposition Yposition Zposition Zrotation Xrotation Yrotation
      JOINT RightFoot
      {
        OFFSET 0 -41 -2
        CHANNELS 6 Xposition Yposition Zposition Zrotation Xrotation Yrotation
        JOINT RightToeBase
        {
          OFFSET 0 -7.5 12.5
          CHANNELS 6 Xposition Yposition Zposition Zrotation Xrotation Yrotation
          JOINT RightFootToe
          {
            OFFSET 0 0 4
            CHANNELS 6 Xposition Yposition Zposition Zrotation Xrotation Yrotation
            End Site
            {
              OFFSET 0 0 0
            }
          }
        }
      }
    }
  }
}
MOTION
Frames:	3
Frame Time:	0.0111111
-5.93588 92.946 -38.7072 -0.068618 0.0376628 -29.2073 0 8 0 -0.359354 -0.431628 5.40959 -3.55271e-15 8 0 0.216429 0.215345 -11.886 0 8 3.55271e-15 0.101711 0.106332 -5.95493 3.55271e-15 8 0 0.101124 0.105793 -5.92647 0 17 0 0.21719 0.0125418 -0.601973 0 10.8 -3.55271e-15 0.514341 -1.24825 -1.39568 5 17 0 -0.018501 1.66547 1.10726 6.45 2.84217e-14 -3.55271e-15 -0.172127 0.185242 6.90561 6.45 0 -7.10543e-15 1.14653 -5.31801 -7.93061 3.55271e-15 -32.4 -2 -0.562101 -4.00699 3.68677 -3.55271e-15 -25.65 2 11.9341 -3.76336 -7.48361 -0.5 -1.5 2.65 -9.89356 -13.8796 -1.84787 0 -3.8 3.7 0.11386 23.0421 -0.0158108 0 -3 2.7 -1.5674e-15 20.1939 3.38887e-15 -3.55271e-15 -1.9 1.6 0 1.59028e-15 -0 -1.77636e-15 -8.3 1.9 -0.655879 -0.0693914 -0 1.77636e-15 -4.5 0 -21.836 -2.08724e-15 1.27222e-14 0 -3.4 -1.77636e-15 -17.0734 -3.18055e-15 -0 -0.25 -2.2 0.4 0 1.59028e-15 -0 0 -8.3 1 -4.73022 -1.02419 0.0654285 0 -4.65 3.55271e-15 -8.69192 7.95139e-16 1.27222e-14 1.77636e-15 -3.3 -3.55271e-15 -7.76862 -3.97569e-16 3.18055e-15 -0.5 -2.15 -0.8 0 1.59028e-15 -0 -1.77636e-15 -7.75 -0.2 -12.5452 -2.87953 0.00336616 0 -3.8 -1.77636e-15 -8.82781e-32 -7.95139e-16 -6.36111e-15 0 -3.4 -1.77636e-15 -0 -1.59028e-15 -0 -0.75 -1.75 -1.85 0 1.59028e-15 -0 5.32907e-15 -7.15 -1 -16.4886 -3.9635 -0.131306 0 -3 0 -7.95139e-16 3.18055e-15 -0 0 -2.35 1.77636e-15 -7.95139e-16 1.59028e-15 -3.18055e-15 -5 17 3.55271e-15 0.129846 1.08575 10.1169 -6.45 0 -7.10543e-15 3.07862 -0.75281 -8.83348 -6.45 -2.84217e-14 3.55271e-15 -3.20264 -2.56794 5.13915 0 -32.4 -2 1.53726 -4.2799 -8.6508 0 -25.65 2 -16.9186 0.655142 0.519854 0.5 -1.5 2.65 3.97058 -6.39691 4.1196 0 -3.8 3.7 -0.0354475 6.73371 9.60794e-15 0 -3 2.7 -1.72675e-15 16.3257 3.31418e-15 0 -1.9 1.6 -7.95139e-16 0 3.18055e-15 0 -8.3 1.9 10.7141 -3.25109 0.252161 0 -4.5 0 0.0876647 3.97569e-16 -3.18055e-15 0 -3.4 3.55271e-15 0.0875616 5.96354e-16 3.18055e-15 0.25 -2.2 0.4 -7.95139e-16 0 3.18055e-15 0 -8.3 1 12.0364 -2.80026 0.164349 -7.10543e-15 -4.65 -3.55271e-15 1.95101 3.97569e-16 -0 0 -3.3 3.55271e-15 1.90006 1.59028e-15 1.27222e-14 0.5 -2.15 -0.8 -7.95139e-16 0 3.18055e-15 0 -7.75 -0.2 14.2724 -1.37942 -0.118749 7.10543e-15 -3.8 3.55271e-15 0.274461 3.97569e-16 -1.27222e-14 7.10543e-15 -3.4 0 0.273437 -3.97569e-16 6.36111e-15 0.75 -1.75 -1.85 -7.95139e-16 0 3.18055e-15 0 -7.15 -1 15.6386 -0.871308 -0.259791 7.10543e-15 -3 0 -0 0 6.36111e-15 0 -2.35 0 0 0 -0 8 0 0 1.64729 -4.65029 -22.1209 3.55271e-15 -45 -1 -0.0117018 9.42196 0.165655 -3.55271e-15 -41 -2 -3.22462 -5.68422 12.9923 1.77636e-15 -7.5 12.5 -5.30812e-21 8.11385e-20 -3.18055e-15 0 0 4 0.339087 0.109819 -7.0237 -8 -1.42109e-14 0 -2.61113 1.17262 -18.0546 0 -45 -1 -0.00834649 5.62724 0.646881 0 -41 -2 2.88039 -5.92444 -9.01693 -7.10543e-15 -7.5 12.5 1.94126e-18 7.76503e-19 -9.54166e-15 0 8.67362e-19 4 -1.98988 -1.04331 7.27434 
-5.93581 92.946 -38.7072 -0.0686579 0.0376946 -29.2074 0 8 0 -0.359321 -0.431763 5.40961 0 8 0 0.216484 0.215376 -11.8861 0 8 -3.55271e-15 0.101756 0.106352 -5.95498 0 8 0 0.101169 0.105813 -5.92658 0 17 0 0.217079 0.0123204 -0.603775 0 10.8 0 0.513968 -1.24842 -1.39856 5 17 0 -0.0153702 1.66774 1.10661 6.45 0 0 -0.173278 0.186063 6.90568 6.45 2.84217e-14 -3.55271e-15 1.14458 -5.32088 -7.93037 0 -32.4 -2 -0.562253 -4.00686 3.68741 0 -25.65 2 11.9342 -3.76709 -7.48352 -0.5 -1.5 2.65 -9.89479 -13.8761 -1.84819 1.77636e-15 -3.8 3.7 0.11386 23.0421 -0.0158108 -8.88178e-16 -3 2.7 3.74711e-16 20.1942 -3.38888e-15 -1.77636e-15 -1.9 1.6 0 0 -3.18055e-15 5.32907e-15 -8.3 1.9 -0.659034 -0.068906 -6.36111e-15 3.55271e-15 -4.5 -1.77636e-15 -21.834 -4.87022e-15 -0 0 -3.4 0 -17.0721 0 -0 -0.25 -2.2 0.4 0 0 -3.18055e-15 1.77636e-15 -8.3 1 -4.7332 -1.02384 0.0654789 -1.77636e-15 -4.65 0 -8.69127 1.59028e-15 -3.18055e-15 1.77636e-15 -3.3 0 -7.76802 5.11871e-15 -6.36111e-15 -0.5 -2.15 -0.8 0 0 -3.18055e-15 -3.55271e-15 -7.75 -0.2 -12.5479 -2.8792 0.00339876 0 -3.8 0 -7.95139e-16 7.95139e-16 3.18055e-15 0 -3.4 -1.77636e-15 7.95139e-16 2.38542e-15 3.18055e-15 -0.75 -1.75 -1.85 0 0 -3.18055e-15 -3.55271e-15 -7.15 -1 -16.4917 -3.96329 -0.131323 0 -3 1.77636e-15 -7.95139e-16 1.59028e-15 -6.36111e-15 0 -2.35 1.77636e-15 -7.95139e-16 0 -6.36111e-15 -5 17 0 0.133631 1.08625 10.1176 -6.45 -2.84217e-14 -3.55271e-15 3.07607 -0.752928 -8.83328 -6.45 0 0 -3.20326 -2.56893 5.13289 -7.10543e-15 -32.4 -2 1.53728 -4.27753 -8.64857 7.10543e-15 -25.65 2 -16.918 0.658366 0.517287 0.5 -1.5 2.65 3.97024 -6.39342 4.12295 0 -3.8 3.7 -0.0354475 6.7297 6.40524e-15 1.42109e-14 -3 2.7 1.72675e-15 16.3257 -3.31419e-15 0 -1.9 1.6 2.20695e-31 -3.97569e-15 3.18055e-15 0 -8.3 1.9 10.7131 -3.25093 0.252237 0 -4.5 0 0.0872657 -1.39149e-15 1.27222e-14 0 -3.4 3.55271e-15 0.0871633 -5.96354e-16 6.36111e-15 0.25 -2.2 0.4 2.20695e-31 -3.97569e-15 3.18055e-15 0 -8.3 1 12.035 -2.80014 0.164432 -1.42109e-14 -4.65 0 1.94759 7.95139e-16 1.27222e-14 0 -3.3 0 1.89719 7.95139e-16 9.54166e-15 0.5 -2.15 -0.8 2.20695e-31 -3.97569e-15 3.18055e-15 -1.42109e-14 -7.75 -0.2 14.2709 -1.37935 -0.118696 7.10543e-15 -3.8 0 0.274739 1.19271e-15 -3.18055e-15 0 -3.4 3.55271e-15 0.273713 7.95139e-16 -3.18055e-15 0.75 -1.75 -1.85 2.20695e-31 -3.97569e-15 3.18055e-15 0 -7.15 -1 15.6377 -0.870996 -0.259731 0 -3 0 3.97569e-16 -3.97569e-16 -6.36111e-15 0 -2.35 -3.55271e-15 7.95139e-16 3.97569e-16 6.36111e-15 8 0 0 1.64751 -4.65022 -22.1204 3.55271e-15 -45 -1 -0.0117007 9.42158 0.165655 -3.55271e-15 -41 -2 -3.22456 -5.6843 12.9922 -3.55271e-15 -7.5 12.5 -7.27971e-20 1.45594e-19 -3.18055e-15 -1.77636e-15 2.71051e-20 4 0.339087 0.109819 -7.0237 -8 0 -7.10543e-15 -2.61116 1.17257 -18.055 0 -45 -1 -0.008349 5.62705 0.646928 -7.10543e-15 -41 -2 2.88053 -5.92441 -9.01641 7.10543e-15 -7.5 12.5 3.88251e-19 3.68839e-18 9.54166e-15 7.10543e-15 0 4 -1.98989 -1.0432 7.27434 
-5.93574 92.946 -38.7073 -0.0686976 0.0377262 -29.2076 0 8 0 -0.359288 -0.431898 5.40963 0 8 -7.10543e-15 0.21654 0.215408 -11.8862 0 8 -3.55271e-15 0.101802 0.106372 -5.95503 0 8 3.55271e-15 0.101215 0.105833 -5.92668 0 17 -3.55271e-15 0.216964 0.0121028 -0.605475 0 10.8 3.55271e-15 0.513592 -1.24855 -1.4017 5 17 -3.55271e-15 -0.0122265 1.67003 1.10602 6.45 2.84217e-14 3.55271e-15 -0.174358 0.186901 6.90574 6.45 -5.68434e-14 0 1.14268 -5.32375 -7.93017 -1.77636e-15 -32.4 -2 -0.562404 -4.00673 3.68807 0 -25.65 2 11.9344 -3.7708 -7.48345 -0.5 -1.5 2.65 -9.89611 -13.8726 -1.84851 8.88178e-16 -3.8 3.7 0.11386 23.042 -0.0158108 8.88178e-16 -3 2.7 -4.74799e-15 20.1944 3.38888e-15 -1.77636e-15 -1.9 1.6 -1.59028e-15 1.59028e-15 -0 0 -8.3 1.9 -0.662379 -0.0684214 -0 -1.77636e-15 -4.5 1.77636e-15 -21.8323 2.98177e-15 -3.18055e-15 0 -3.4 0 -17.0708 1.59028e-15 -9.54166e-15 -0.25 -2.2 0.4 -1.59028e-15 1.59028e-15 -0 0 -8.3 1 -4.73637 -1.02349 0.0655293 0 -4.65 3.55271e-15 -8.6906 1.59028e-15 3.18055e-15 0 -3.3 1.77636e-15 -7.76741 5.46658e-16 -9.54166e-15 -0.5 -2.15 -0.8 -1.59028e-15 1.59028e-15 -0 -1.77636e-15 -7.75 -0.2 -12.5508 -2.87888 0.00343134 0 -3.8 -1.77636e-15 -7.95139e-16 3.97569e-15 -6.36111e-15 1.77636e-15 -3.4 -1.77636e-15 7.95139e-16 7.95139e-16 -0 -0.75 -1.75 -1.85 -1.59028e-15 1.59028e-15 -0 0 -7.15 -1 -16.4951 -3.96308 -0.13134 0 -3 0 -2.38542e-15 1.59028e-15 3.18055e-15 3.55271e-15 -2.35 3.55271e-15 -2.38542e-15 0 3.18055e-15 -5 17 -3.55271e-15 0.137363 1.08684 10.1183 -6.45 2.84217e-14 0 3.07356 -0.753046 -8.83308 -6.45 0 -3.55271e-15 -3.20386 -2.56992 5.12676 -7.10543e-15 -32.4 -2 1.53726 -4.27547 -8.64626 -7.10543e-15 -25.65 2 -16.9175 0.662238 0.514547 0.5 -1.5 2.65 3.97004 -6.38974 4.12792 0 -3.8 3.7 -0.0354475 6.72651 6.4052e-15 0 -3 2.7 1.31733e-15 16.3258 6.62837e-15 0 -1.9 1.6 4.77083e-15 -7.95139e-16 -0 0 -8.3 1.9 10.7121 -3.25079 0.252313 -7.10543e-15 -4.5 -3.55271e-15 0.0869168 1.19271e-15 -6.36111e-15 0 -3.4 -3.55271e-15 0.0868151 -3.97569e-16 -9.54166e-15 0.25 -2.2 0.4 4.77083e-15 -7.95139e-16 -0 1.42109e-14 -8.3 1 12.0336 -2.80004 0.164514 0 -4.65 -3.55271e-15 1.94437 -1.59028e-15 6.36111e-15 0 -3.3 0 1.89424 2.38542e-15 -9.54166e-15 0.5 -2.15 -0.8 4.77083e-15 -7.95139e-16 -0 0 -7.75 -0.2 14.2693 -1.37933 -0.118642 -7.10543e-15 -3.8 0 0.275054 -7.95139e-16 3.18055e-15 0 -3.4 -7.10543e-15 0.274024 0 -3.18055e-15 0.75 -1.75 -1.85 4.77083e-15 -7.95139e-16 -0 0 -7.15 -1 15.6367 -0.870792 -0.259672 0 -3 -3.55271e-15 -1.19271e-15 -1.98785e-15 -9.54166e-15 0 -2.35 0 -3.97569e-16 -3.97569e-16 -3.18055e-15 8 0 3.55271e-15 1.64772 -4.65015 -22.12 3.55271e-15 -45 -1 -0.0116995 9.42121 0.165655 0 -41 -2 -3.2245 -5.68438 12.9922 -3.55271e-15 -7.5 12.5 4.85314e-20 -9.70628e-20 1.59028e-14 1.77636e-15 5.42101e-20 4 0.339087 0.109819 -7.0237 -8 1.42109e-14 3.55271e-15 -2.6112 1.17251 -18.0555 0 -45 -1 -0.00835139 5.62686 0.646974 0 -41 -2 2.88067 -5.92439 -9.01586 0 -7.5 12.5 -3.88251e-19 1.94126e-19 -3.18055e-15 0 4.33681e-19 4 -1.98991 -1.04309 7.27434 
